# xmcd
#
# Track frame offsets:
#	225
#	13818
#	28308
#	42385
#	57439
#	71170
#	85391
#	97816
#	111394
#	125673
#	139828
#	153425
#	165270
#	179911
#	194823
#	209872
#	224534
#	237606
#	252485
#	267036
#	280363
#	295157
#	307244
#	320120
#	334270
#
# Disc length: 4654 seconds
#
# Revision: 0
# Processed by: cddbd v1.5.1PL2 Copyright (c) Steve Scherf et al.
# Submitted via: audiograbber 1.83.01
#
DISCID=ab122b19
DTITLE=Jack Hylton - vol4 I'm Perfectly Satisfied
DYEAR=2004
DGENRE=Easy Listening
TTITLE0=Tie A String Around Your Finger
TTITLE1=A Cup Of Coffee, A Sandwich and You
TTITLE2=Poor Papa, He's Got Nothing At All
TTITLE3=Are You Happy
TTITLE4=Marvellous
TTITLE5=My Inspiration Is You
TTITLE6=In Old Vienna
TTITLE7=Mama's Gone Young, Papa's Gone Old
TTITLE8=You're The Cream In My Coffee
TTITLE9=Falling In Love Again
TTITLE10=You Taught Me All I Know
TTITLE11=(He Loved Her - Who Did? - He Did - Where?) On Her Doorstep Last Night
TTITLE12=If I Had My Way
TTITLE13=I'm Perfectly Satisfied
TTITLE14=The Grasshopper's Dance
TTITLE15=Talkie Hits Melody 1
TTITLE16=Talkie Hits Melody 2
TTITLE17=Wedding Of The Rose
TTITLE18=Tid-Dle-Id-Dle-Um-Pum!
TTITLE19=The Toymaker's Dream
TTITLE20=Lover Come Back To Me
TTITLE21=Thank You Father
TTITLE22=Cherie, C'est Vous
TTITLE23=Guilty
TTITLE24=Cupid On The Cake
EXTD=
EXTT0=
EXTT1=
EXTT2=
EXTT3=
EXTT4=
EXTT5=
EXTT6=
EXTT7=
EXTT8=
EXTT9=
EXTT10=
EXTT11=
EXTT12=
EXTT13=
EXTT14=
EXTT15=
EXTT16=
EXTT17=
EXTT18=
EXTT19=
EXTT20=
EXTT21=
EXTT22=
EXTT23=
EXTT24=
PLAYORDER=
